# xmcd
#
# Track frame offsets:
#	150
#	12728
#	31645
#	49865
#	67208
#	85289
#	99016
#	114680
#	130460
#	146563
#	161413
#	176394
#
# Disc length: 2605 seconds
#
# Revision: 1
# Processed by: cddbd v1.5.2PL0 Copyright (c) Steve Scherf et al.
# Submitted via: audiograbber 1.83.01
#
DISCID=9f0a2b0c
DTITLE=яелпоутсийас пкоутаявос [2003] - тсицаяо ста йкежта [циаммгс памациытопо
DTITLE=укос]
DYEAR=2003
DGENRE=Vocal
TTITLE0=йяуллемос хгсауяос
TTITLE1=г пакиа фыг нама
TTITLE2=дийо лоу жыс
TTITLE3=йоййимо жеццаяи
TTITLE4=алаятиес тоу втес
TTITLE5=еипа ма се фыцяажисы
TTITLE6=вяомиа хулылема
TTITLE7=аяцгсес
TTITLE8=г ацапг текеиымеи апка
TTITLE9=лиа йаимоуяиа аявг
TTITLE10=стгс ьувгс тгм айяг
TTITLE11=та коциа тгс сиыпгс
EXTD=
EXTT0=
EXTT1=
EXTT2=
EXTT3=
EXTT4=
EXTT5=
EXTT6=
EXTT7=
EXTT8=
EXTT9=
EXTT10=
EXTT11=
PLAYORDER=
